<svg width="24" height="24" viewBox="0 0 24 24" fill="none" xmlns="http://www.w3.org/2000/svg">
    <path fill-rule="evenodd" clip-rule="evenodd" d="M12 4.5188C11.2146 4.5188 10.4368 4.67351 9.71112 4.97409C8.98544 5.27468 8.32607 5.71526 7.77066 6.27067C7.21525 6.82608 6.77468 7.48545 6.47409 8.21112C6.1735 8.9368 6.01879 9.71458 6.01879 10.5C6.01879 13.9618 5.29296 16.0466 4.59644 17.2501H19.4037C18.7071 16.0466 17.9813 13.9618 17.9813 10.5C17.9813 9.71458 17.8266 8.9368 17.526 8.21112C17.2254 7.48545 16.7848 6.82608 16.2294 6.27067C15.674 5.71526 15.0146 5.27468 14.289 4.97409C13.5633 4.67351 12.7855 4.5188 12 4.5188ZM9.13709 3.58827C10.0448 3.21231 11.0176 3.0188 12 3.0188C12.9825 3.0188 13.9553 3.21231 14.863 3.58827C15.7707 3.96424 16.5954 4.51531 17.2901 5.21001C17.9848 5.9047 18.5358 6.72943 18.9118 7.6371C19.2878 8.54477 19.4813 9.5176 19.4813 10.5C19.4813 13.7501 20.1614 15.5651 20.7022 16.4993L20.7027 16.5C20.8341 16.7277 20.9034 16.9859 20.9037 17.2487C20.9039 17.5116 20.835 17.7699 20.704 17.9978C20.573 18.2256 20.3844 18.4151 20.1571 18.5471C19.9298 18.6791 19.6718 18.7491 19.4089 18.75L19.4063 18.75H4.59379L4.59115 18.75C4.3283 18.7491 4.0703 18.6791 3.843 18.5471C3.61571 18.4151 3.4271 18.2256 3.29608 17.9978C3.16505 17.7699 3.0962 17.5116 3.09644 17.2487C3.09667 16.9859 3.16597 16.7277 3.2974 16.5L3.29785 16.4993C3.83869 15.5651 4.51879 13.7501 4.51879 10.5C4.51879 9.5176 4.7123 8.54477 5.08827 7.6371C5.46424 6.72943 6.0153 5.9047 6.71 5.21001C7.4047 4.51531 8.22943 3.96424 9.13709 3.58827Z" fill="#D0D0D0"/>
    <path fill-rule="evenodd" clip-rule="evenodd" d="M9 17.25C9.41421 17.25 9.75 17.5858 9.75 18V18.75C9.75 19.3467 9.98705 19.919 10.409 20.341C10.831 20.7629 11.4033 21 12 21C12.5967 21 13.169 20.7629 13.591 20.341C14.0129 19.919 14.25 19.3467 14.25 18.75V18C14.25 17.5858 14.5858 17.25 15 17.25C15.4142 17.25 15.75 17.5858 15.75 18V18.75C15.75 19.7446 15.3549 20.6984 14.6516 21.4016C13.9484 22.1049 12.9946 22.5 12 22.5C11.0054 22.5 10.0516 22.1049 9.34835 21.4016C8.64509 20.6984 8.25 19.7446 8.25 18.75V18C8.25 17.5858 8.58579 17.25 9 17.25Z" fill="#D0D0D0"/>
    <path fill-rule="evenodd" clip-rule="evenodd" d="M16.5595 1.84975C16.7806 1.49949 17.2438 1.39478 17.594 1.61589C19.2374 2.65328 20.5638 4.12275 21.428 5.86347C21.6122 6.23449 21.4607 6.68456 21.0897 6.86875C20.7187 7.05293 20.2686 6.90148 20.0844 6.53047C19.3426 5.03622 18.2041 3.77481 16.7934 2.88431C16.4431 2.6632 16.3384 2.20002 16.5595 1.84975Z" fill="#D0D0D0"/>
    <path fill-rule="evenodd" clip-rule="evenodd" d="M7.44053 1.84975C7.66163 2.20002 7.55693 2.6632 7.20666 2.88431C5.79596 3.77481 4.6574 5.03622 3.91559 6.53047C3.73141 6.90148 3.28133 7.05293 2.91032 6.86875C2.53931 6.68456 2.38786 6.23449 2.57204 5.86347C3.43622 4.12275 4.76258 2.65328 6.40597 1.61589C6.75624 1.39478 7.21943 1.49949 7.44053 1.84975Z" fill="#D0D0D0"/>
</svg>
