<svg width="24" height="24" viewBox="0 0 24 24" fill="none" xmlns="http://www.w3.org/2000/svg">
    <path fill-rule="evenodd" clip-rule="evenodd" d="M17.0249 5.39822C16.778 5.34397 16.5213 5.35302 16.2788 5.42452C16.0369 5.49584 15.8169 5.62701 15.6391 5.80589C15.6387 5.80632 15.6382 5.80676 15.6378 5.80719L6.81112 14.6339C6.81062 14.6344 6.81013 14.6349 6.80963 14.6354C6.63085 14.8131 6.49975 15.0331 6.42845 15.2749C6.35695 15.5174 6.3479 15.774 6.40215 16.021C6.45641 16.2679 6.57219 16.4971 6.73875 16.6873C6.90532 16.8775 7.11726 17.0225 7.35487 17.1089L21.2346 22.1509C21.5015 22.2514 21.7917 22.2733 22.0708 22.2138C22.3523 22.1537 22.6104 22.0135 22.8139 21.81C23.0174 21.6064 23.1577 21.3484 23.2177 21.0669C23.2772 20.7878 23.2554 20.4975 23.1548 20.2305L18.1128 6.35103C18.0265 6.11341 17.8814 5.90138 17.6912 5.73482C17.501 5.56826 17.2718 5.45247 17.0249 5.39822ZM22.4517 20.4915L21.7511 20.7593C21.7505 20.7576 21.7503 20.7557 21.7507 20.754C21.7511 20.7522 21.752 20.7506 21.7532 20.7493C21.7545 20.748 21.7561 20.7471 21.7579 20.7468C21.7596 20.7464 21.7614 20.7465 21.7631 20.7471L21.7556 20.7443L22.4517 20.4915ZM21.744 20.7401L7.86721 15.6991L7.8695 15.6968L16.7007 6.86557L16.703 6.86328L21.744 20.7401Z" fill="#D0D0D0"/>
    <path fill-rule="evenodd" clip-rule="evenodd" d="M5.75488 2.5C5.34067 2.5 5.00488 2.83579 5.00488 3.25H5.75488C5.00488 3.25 5.00488 3.25038 5.00488 3.25076L5.00488 3.25157L5.00489 3.25336L5.00492 3.25758L5.00505 3.26855C5.00518 3.27696 5.00543 3.28758 5.00585 3.30025C5.00669 3.32558 5.00827 3.35926 5.01118 3.40012C5.017 3.48158 5.02828 3.59306 5.05024 3.72486C5.09359 3.98492 5.18167 4.34312 5.36531 4.71041C5.55042 5.08063 5.83987 5.47367 6.28808 5.77248C6.74098 6.07441 7.31114 6.25 8.00488 6.25C8.43614 6.25 8.70973 6.35566 8.88964 6.4756C9.07424 6.59867 9.20667 6.76813 9.30281 6.96041C9.40042 7.15562 9.45296 7.35992 9.47993 7.52174C9.49312 7.60087 9.49942 7.66517 9.50239 7.70676C9.50387 7.72742 9.5045 7.74208 9.50475 7.74972L9.5049 7.75524C9.50772 8.16704 9.84242 8.5 10.2549 8.5C10.6691 8.5 11.0049 8.16421 11.0049 7.75H10.2549C11.0049 7.75 11.0049 7.74962 11.0049 7.74924L11.0049 7.74843L11.0049 7.74664L11.0049 7.74242L11.0047 7.73145C11.0046 7.72304 11.0043 7.71242 11.0039 7.69975C11.0031 7.67442 11.0015 7.64074 10.9986 7.59988C10.9928 7.51842 10.9815 7.40694 10.9595 7.27514C10.9162 7.01508 10.8281 6.65688 10.6445 6.28959C10.4593 5.91937 10.1699 5.52633 9.72169 5.22752C9.26879 4.92559 8.69862 4.75 8.00488 4.75C7.57362 4.75 7.30004 4.64434 7.12013 4.5244C6.93552 4.40133 6.80309 4.23187 6.70695 4.03959C6.60935 3.84438 6.5568 3.64008 6.52983 3.47826C6.51665 3.39913 6.51034 3.33483 6.50737 3.29324C6.5059 3.27258 6.50527 3.25792 6.50502 3.25028L6.50486 3.24476C6.50205 2.83296 6.16735 2.5 5.75488 2.5ZM6.50485 3.24436V3.24436V3.24436Z" fill="#D0D0D0"/>
    <path fill-rule="evenodd" clip-rule="evenodd" d="M21.1353 14.8701C20.8424 14.5772 20.3675 14.5772 20.0747 14.8701L15.8747 19.0701C15.5818 19.363 15.5818 19.8378 15.8746 20.1307C16.1675 20.4236 16.6424 20.4236 16.9353 20.1307L21.1353 15.9307C21.4282 15.6378 21.4282 15.163 21.1353 14.8701Z" fill="#D0D0D0"/>
    <path fill-rule="evenodd" clip-rule="evenodd" d="M12.5049 1.75C12.0907 1.75 11.7549 2.08579 11.7549 2.5V4.75C11.7549 5.16421 12.0907 5.5 12.5049 5.5C12.9191 5.5 13.2549 5.16421 13.2549 4.75V2.5C13.2549 2.08579 12.9191 1.75 12.5049 1.75Z" fill="#D0D0D0"/>
    <path fill-rule="evenodd" clip-rule="evenodd" d="M6.28521 10.9697C5.99232 10.6768 5.51745 10.6768 5.22455 10.9697L3.72455 12.4697C3.43166 12.7626 3.43166 13.2374 3.72455 13.5303C4.01745 13.8232 4.49232 13.8232 4.78521 13.5303L6.28521 12.0303C6.57811 11.7374 6.57811 11.2626 6.28521 10.9697Z" fill="#D0D0D0"/>
    <path fill-rule="evenodd" clip-rule="evenodd" d="M2.79317 7.51303C2.66218 7.90599 2.87455 8.33073 3.26751 8.46172L5.51751 9.21172C5.91047 9.3427 6.33521 9.13033 6.46619 8.73737C6.59718 8.34442 6.38481 7.91968 5.99185 7.78869L3.74185 7.03869C3.34889 6.90771 2.92416 7.12008 2.79317 7.51303Z" fill="#D0D0D0"/>
    <path fill-rule="evenodd" clip-rule="evenodd" d="M19.335 9.91889C19.0421 9.626 18.5673 9.626 18.2744 9.91889L10.9244 17.2689C10.6315 17.5618 10.6315 18.0367 10.9244 18.3295C11.2173 18.6224 11.6921 18.6224 11.985 18.3295L19.335 10.9795C19.6279 10.6867 19.6279 10.2118 19.335 9.91889Z" fill="#D0D0D0"/>
    <line x1="1.31034" y1="21.2759" x2="22.3103" y2="1.27586" stroke="#D0D0D0" stroke-width="2"/>
</svg>
