<svg width="24" height="24" viewBox="0 0 24 24" fill="none" xmlns="http://www.w3.org/2000/svg">
    <path fill-rule="evenodd" clip-rule="evenodd" d="M12 17.25C12.4142 17.25 12.75 17.5858 12.75 18V20.25C12.75 20.6642 12.4142 21 12 21C11.5858 21 11.25 20.6642 11.25 20.25V18C11.25 17.5858 11.5858 17.25 12 17.25Z" fill="#D0D0D0"/>
    <path d="M8.625 14.25C9.24632 14.25 9.75 13.7463 9.75 13.125C9.75 12.5037 9.24632 12 8.625 12C8.00368 12 7.5 12.5037 7.5 13.125C7.5 13.7463 8.00368 14.25 8.625 14.25Z" fill="#D0D0D0"/>
    <path d="M15.375 14.25C15.9963 14.25 16.5 13.7463 16.5 13.125C16.5 12.5037 15.9963 12 15.375 12C14.7537 12 14.25 12.5037 14.25 13.125C14.25 13.7463 14.7537 14.25 15.375 14.25Z" fill="#D0D0D0"/>
    <path fill-rule="evenodd" clip-rule="evenodd" d="M9.96967 15.9697C10.2626 15.6768 10.7374 15.6768 11.0303 15.9697L12 16.9393L12.9697 15.9697C13.2626 15.6768 13.7374 15.6768 14.0303 15.9697C14.3232 16.2626 14.3232 16.7374 14.0303 17.0303L12.5303 18.5303C12.2374 18.8232 11.7626 18.8232 11.4697 18.5303L9.96967 17.0303C9.67678 16.7374 9.67678 16.2626 9.96967 15.9697Z" fill="#D0D0D0"/>
    <path fill-rule="evenodd" clip-rule="evenodd" d="M19.2992 2.4692C19.4961 2.41978 19.701 2.41084 19.9015 2.44293C20.1023 2.47507 20.2945 2.54772 20.4663 2.65645C20.6382 2.76519 20.7862 2.90774 20.9012 3.07544C21.0163 3.24313 21.096 3.43248 21.1356 3.63196L21.1372 3.64L22.6753 11.8556C22.9555 13.3872 20.9928 14.2931 20.0171 13.0547L13.6602 4.96323C13.5031 4.76322 13.4581 4.4972 13.5406 4.2566C13.6231 4.016 13.8219 3.83361 14.0687 3.77213L19.2982 2.46946C19.2985 2.46938 19.2989 2.46929 19.2992 2.4692ZM15.5555 4.9476L21.1954 12.1264C21.1954 12.1264 21.1953 12.1263 21.1954 12.1264C21.1958 12.1269 21.1964 12.1277 21.1968 12.1282C21.1971 12.128 21.1974 12.1279 21.1977 12.1278C21.1985 12.1274 21.1993 12.127 21.2 12.1267C21.1999 12.1265 21.2 12.1268 21.2 12.1267C21.1999 12.1264 21.1998 12.1257 21.1997 12.1255L19.6643 3.92408L19.6625 3.92453L15.5555 4.9476Z" fill="#D0D0D0"/>
    <path fill-rule="evenodd" clip-rule="evenodd" d="M4.70101 2.4692C4.70136 2.46929 4.70172 2.46938 4.70207 2.46946L9.93149 3.77213C10.1783 3.83361 10.3771 4.016 10.4596 4.2566C10.5422 4.4972 10.4971 4.76322 10.34 4.96323L3.98308 13.0547C3.00738 14.2931 1.04476 13.3872 1.32495 11.8556L1.32551 11.8525L2.86452 3.63196C2.90413 3.43247 2.98393 3.24314 3.09899 3.07544C3.21405 2.90774 3.36202 2.76519 3.53389 2.65645C3.70576 2.54772 3.89794 2.47507 4.09876 2.44293C4.29923 2.41084 4.50411 2.41978 4.70101 2.4692ZM4.33589 3.92409L2.80046 12.1255C2.80041 12.1258 2.80036 12.126 2.80032 12.1263C2.80029 12.1264 2.80034 12.1262 2.80032 12.1263C2.80103 12.1267 2.80172 12.1274 2.80251 12.1278C2.80281 12.1279 2.80311 12.128 2.8034 12.1282C2.8038 12.1277 2.80423 12.1271 2.80466 12.1266C2.80472 12.1265 2.8046 12.1267 2.80466 12.1266L8.4447 4.9476L4.33589 3.92409Z" fill="#D0D0D0"/>
    <path fill-rule="evenodd" clip-rule="evenodd" d="M9 4.5C9 4.08579 9.33579 3.75 9.75 3.75H14.25C14.6642 3.75 15 4.08579 15 4.5C15 4.91421 14.6642 5.25 14.25 5.25H9.75C9.33579 5.25 9 4.91421 9 4.5Z" fill="#D0D0D0"/>
    <path fill-rule="evenodd" clip-rule="evenodd" d="M4.5 10.4343C4.91421 10.4343 5.25 10.7701 5.25 11.1843V17.25C5.25 17.8467 5.48705 18.419 5.90901 18.8409C6.33097 19.2629 6.90326 19.5 7.5 19.5H16.5C17.0967 19.5 17.669 19.2629 18.091 18.8409C18.5129 18.419 18.75 17.8467 18.75 17.25V11.1843C18.75 10.7701 19.0858 10.4343 19.5 10.4343C19.9142 10.4343 20.25 10.7701 20.25 11.1843V17.25C20.25 18.2445 19.8549 19.1983 19.1517 19.9016C18.4484 20.6049 17.4946 21 16.5 21H7.5C6.50544 21 5.55161 20.6049 4.84835 19.9016C4.14509 19.1983 3.75 18.2445 3.75 17.25V11.1843C3.75 10.7701 4.08579 10.4343 4.5 10.4343Z" fill="#D0D0D0"/>
    <line x1="1.31034" y1="21.2759" x2="22.3103" y2="1.27586" stroke="#D0D0D0" stroke-width="2"/>
</svg>
