<svg width="24" height="25" viewBox="0 0 24 25" fill="none" xmlns="http://www.w3.org/2000/svg">
    <path d="M2.17492 12.9382L2.17492 12.7898L20.6955 12.7899H20.6959C20.9891 12.7907 21.2702 12.9074 21.4775 13.1148C21.6849 13.3221 21.8019 13.6032 21.8026 13.8965V13.8969L21.801 15.9019V15.902M2.17492 12.9382L1.21952 15.9019C1.21952 16.1553 1.32003 16.3984 1.49918 16.5775C1.67843 16.7568 1.92154 16.8573 2.17492 16.8573H20.6956C20.949 16.8573 21.192 16.7567 21.3711 16.5775C21.5504 16.3983 21.651 16.1553 21.651 15.9019L21.801 15.902M2.17492 12.9382L2.17492 12.7898C1.88175 12.7898 1.60049 12.9064 1.39322 13.1136C1.18597 13.3209 1.06939 13.6022 1.06952 13.8953M2.17492 12.9382L1.06952 13.8953M21.801 15.902C21.801 16.1952 21.6846 16.4763 21.4772 16.6836C21.2699 16.8909 20.9888 17.0073 20.6956 17.0073L2.17492 17.0073L2.17492 17.0073C1.88182 17.0073 1.60055 16.891 1.39311 16.6836C1.18578 16.4763 1.06952 16.195 1.06952 15.9019L1.06952 13.8953M21.801 15.902L1.06952 13.8953M20.6698 13.9347L20.6698 15.8599H20.1715L20.1689 13.9347H20.6698ZM5.98416 13.9376L5.98438 13.9376H5.9846L5.98504 13.9376L6.08523 13.9379L6.14357 13.9381L6.15992 13.9381L6.16342 13.9381L6.16348 13.9381L6.16382 13.9381L6.1639 13.9381H6.16391H6.16393C6.16393 13.9381 6.16411 13.9379 6.16446 13.9376C6.20569 13.9377 6.24777 13.9378 6.29454 13.938C6.41725 13.9385 6.57228 13.9391 6.82911 13.9391H6.83058H6.83059L19.0242 13.9376L19.0256 15.8614L6.83432 15.8599C6.60047 15.8532 6.38372 15.8558 6.20122 15.8581C6.16902 15.8585 6.13789 15.8588 6.10791 15.8592L6.10733 15.8591L6.10038 15.8587L6.09767 15.8586L6.0945 15.8585L6.0888 15.8585L6.07306 15.8585L6.02675 15.8587C5.99256 15.8589 5.95402 15.8592 5.93777 15.8595L5.93173 15.8596L5.92834 15.8597L5.92563 15.8598L5.92403 15.8599L2.2172 15.8598V13.9376L5.98416 13.9376Z" fill="#D0D0D0" stroke="#D0D0D0" stroke-width="0.3"/>
    <path d="M15.4361 3.50758L15.4246 3.50536C13.6862 3.13875 12.1326 2.17112 11.0369 0.772137C10.8917 0.569495 10.6319 0.483774 10.3943 0.560445L10.3943 0.560462C10.1555 0.637621 9.9945 0.861242 9.99709 1.11223L9.99709 1.11223C9.99792 1.18111 10.0452 2.7317 10.6408 4.32705C11.2418 5.93686 12.4194 7.63325 14.7083 7.84156C16.1651 7.97494 17.2615 8.87448 18.0022 9.763C18.3716 10.206 18.6489 10.642 18.8347 10.9695C18.9275 11.1331 18.9972 11.2693 19.044 11.3651C19.0867 11.4528 19.1093 11.5047 19.113 11.5132C19.1134 11.5142 19.1136 11.5146 19.1136 11.5145L19.114 11.5156C19.2119 11.7598 19.4636 11.9062 19.7243 11.8704L19.7039 11.7218L19.724 11.8705C19.9903 11.8346 20.1957 11.6187 20.2188 11.3513L20.0693 11.3384L20.2187 11.3522C20.2224 11.3118 20.3629 9.62016 19.8413 7.8067C19.3187 5.98967 18.1213 4.02397 15.4361 3.50758ZM12.2542 5.04652C11.7999 4.33022 11.5298 3.49344 11.3699 2.77074C12.4711 3.70515 13.7939 4.34614 15.215 4.62995L15.215 4.62996L15.2163 4.63019C16.677 4.90932 17.5892 5.72237 18.161 6.68857C18.6225 7.4683 18.8625 8.34909 18.9828 9.12988C18.1156 8.04876 16.7439 6.87371 14.8133 6.69807L14.8133 6.69807C13.6087 6.58882 12.8011 5.90896 12.2542 5.04652Z" fill="#D0D0D0" stroke="#D0D0D0" stroke-width="0.3"/>
    <line x1="1.31034" y1="21.2759" x2="22.3103" y2="1.27586" stroke="#D0D0D0" stroke-width="2"/>
</svg>
