<svg width="32" height="32" viewBox="0 0 32 32" fill="none" xmlns="http://www.w3.org/2000/svg">
    <path fill-rule="evenodd" clip-rule="evenodd" d="M16 7C16.5523 7 17 7.44772 17 8V24C17 24.5523 16.5523 25 16 25C15.4477 25 15 24.5523 15 24V8C15 7.44772 15.4477 7 16 7Z" fill="#D0D0D0"/>
    <path fill-rule="evenodd" clip-rule="evenodd" d="M12.2929 4.29289C12.6834 3.90237 13.3166 3.90237 13.7071 4.29289L16 6.58579L18.2929 4.29289C18.6834 3.90237 19.3166 3.90237 19.7071 4.29289C20.0976 4.68342 20.0976 5.31658 19.7071 5.70711L16.7071 8.70711C16.3166 9.09763 15.6834 9.09763 15.2929 8.70711L12.2929 5.70711C11.9024 5.31658 11.9024 4.68342 12.2929 4.29289Z" fill="#D0D0D0"/>
    <path fill-rule="evenodd" clip-rule="evenodd" d="M15.2929 23.2929C15.6834 22.9024 16.3166 22.9024 16.7071 23.2929L19.7071 26.2929C20.0976 26.6834 20.0976 27.3166 19.7071 27.7071C19.3166 28.0976 18.6834 28.0976 18.2929 27.7071L16 25.4142L13.7071 27.7071C13.3166 28.0976 12.6834 28.0976 12.2929 27.7071C11.9024 27.3166 11.9024 26.6834 12.2929 26.2929L15.2929 23.2929Z" fill="#D0D0D0"/>
    <path fill-rule="evenodd" clip-rule="evenodd" d="M8.20895 11.4999C8.48519 11.0216 9.09681 10.8579 9.57505 11.1341L23.425 19.1341C23.9033 19.4104 24.067 20.022 23.7908 20.5002C23.5146 20.9785 22.9029 21.1422 22.4247 20.866L8.5747 12.866C8.09646 12.5897 7.93271 11.9781 8.20895 11.4999Z" fill="#D0D0D0"/>
    <path fill-rule="evenodd" clip-rule="evenodd" d="M7.71573 6.93419C8.24915 6.79107 8.79759 7.10748 8.9407 7.6409L10.0407 11.7409C10.1838 12.2743 9.86741 12.8228 9.33399 12.9659L5.23399 14.0659C4.70057 14.209 4.15213 13.8926 4.00901 13.3592C3.8659 12.8257 4.18231 12.2773 4.71573 12.1342L7.84989 11.2933L7.00901 8.15916C6.8659 7.62574 7.18231 7.0773 7.71573 6.93419Z" fill="#D0D0D0"/>
    <path fill-rule="evenodd" clip-rule="evenodd" d="M27.9909 18.6409C28.134 19.1743 27.8176 19.7228 27.2842 19.8659L24.15 20.7067L24.9909 23.8409C25.134 24.3743 24.8176 24.9228 24.2842 25.0659C23.7508 25.209 23.2023 24.8926 23.0592 24.3592L21.9592 20.2592C21.8161 19.7257 22.1325 19.1773 22.6659 19.0342L26.7659 17.9342C27.2993 17.7911 27.8478 18.1075 27.9909 18.6409Z" fill="#D0D0D0"/>
    <path fill-rule="evenodd" clip-rule="evenodd" d="M23.7908 11.4999C24.067 11.9781 23.9033 12.5897 23.425 12.866L9.57505 20.866C9.09681 21.1422 8.48519 20.9785 8.20895 20.5002C7.93271 20.022 8.09646 19.4104 8.5747 19.1341L22.4247 11.1341C22.9029 10.8579 23.5146 11.0216 23.7908 11.4999Z" fill="#D0D0D0"/>
    <path fill-rule="evenodd" clip-rule="evenodd" d="M4.00901 18.6409C4.15213 18.1075 4.70057 17.7911 5.23399 17.9342L9.33399 19.0342C9.86741 19.1773 10.1838 19.7257 10.0407 20.2592L8.9407 24.3592C8.79759 24.8926 8.24915 25.209 7.71573 25.0659C7.18231 24.9228 6.8659 24.3743 7.00901 23.8409L7.84989 20.7067L4.71573 19.8659C4.18231 19.7228 3.8659 19.1743 4.00901 18.6409Z" fill="#D0D0D0"/>
    <path fill-rule="evenodd" clip-rule="evenodd" d="M24.2839 6.93419C24.8174 7.0773 25.1338 7.62574 24.9906 8.15916L24.1498 11.2933L27.2839 12.1342C27.8174 12.2773 28.1338 12.8257 27.9906 13.3592C27.8475 13.8926 27.2991 14.209 26.7657 14.0659L22.6657 12.9659C22.4095 12.8971 22.1912 12.7295 22.0586 12.4998C21.9261 12.27 21.8902 11.9971 21.959 11.7409L23.059 7.6409C23.2021 7.10748 23.7505 6.79107 24.2839 6.93419Z" fill="#D0D0D0"/>
</svg>
