<svg width="25" height="29" viewBox="0 0 25 29" fill="none" xmlns="http://www.w3.org/2000/svg">
    <path d="M18.5302 17.6893C18.5592 17.6759 18.5873 17.6629 18.6148 17.6501C18.9523 17.4936 19.1844 17.3859 19.522 17.3436C19.4004 20.9792 16.4236 23.8807 12.7579 23.8807C9.09432 23.8807 6.11878 20.9825 5.99407 17.3498C6.31009 17.3993 6.55169 17.5074 6.88734 17.6576C6.91129 17.6683 6.93573 17.6792 6.9607 17.6904L6.96073 17.6904C7.47915 17.9216 8.17081 18.184 9.27396 18.184C10.2486 18.184 10.8835 17.9147 11.372 17.6893L11.3721 17.6893C11.3961 17.6782 11.4196 17.6673 11.4428 17.6566C11.8813 17.4533 12.1837 17.3131 12.758 17.3131C13.3322 17.3131 13.6344 17.4532 14.0728 17.6565C14.096 17.6672 14.1197 17.6782 14.1437 17.6893L14.1438 17.6893C14.6324 17.9147 15.2672 18.184 16.2419 18.184C17.345 18.184 18.0263 17.9222 18.5302 17.6893ZM18.5302 17.6893L18.4463 17.5077M18.5302 17.6893C18.5302 17.6893 18.5302 17.6893 18.5302 17.6893L18.4463 17.5077M18.4463 17.5077C17.96 17.7325 17.3078 17.984 16.2419 17.984C15.3096 17.984 14.7057 17.7283 14.2276 17.5077L19.5258 17.1418C19.1401 17.1857 18.8808 17.3061 18.5345 17.4669C18.5058 17.4802 18.4764 17.4938 18.4463 17.5077ZM22.3387 2.0712H3.17742C2.55631 2.0712 2.07089 2.55659 2.07089 3.17724V6.02586H21.9017H21.9031V6.22586L22.3387 2.0712ZM22.3387 2.0712C22.9598 2.0712 23.4452 2.55672 23.4452 3.17742M22.3387 2.0712L23.4452 3.17742M23.4452 3.17742V25.8226M23.4452 3.17742V25.8226M23.4452 25.8226C23.4452 26.4433 22.9598 26.9288 22.3387 26.9288M23.4452 25.8226L22.3387 26.9288M22.3387 26.9288H3.17742M22.3387 26.9288H3.17742M3.17742 26.9288C2.55637 26.9288 2.07089 26.4433 2.07089 25.8226M3.17742 26.9288L2.07089 25.8226M2.07089 25.8226V7.29677M2.07089 25.8226V7.29677M2.07089 7.29677H21.9019H21.9031V7.09677C22.0195 7.09829 22.1319 7.05334 22.2148 6.97132M2.07089 7.29677L22.3552 6.20856C22.4764 6.32803 22.5448 6.49077 22.5448 6.66117C22.5448 6.83122 22.4767 6.99437 22.3552 7.11377M22.2148 6.97132L22.3549 7.11403C22.355 7.11395 22.3551 7.11386 22.3552 7.11377M22.2148 6.97132L22.3555 7.11351C22.3554 7.1136 22.3553 7.11369 22.3552 7.11377M22.2148 6.97132L22.3552 7.11377M7.38113 16.4923C7.03096 16.3348 6.62346 16.1515 6.08467 16.0784C6.58443 12.8312 9.37056 10.3452 12.758 10.3452C16.1439 10.3452 18.9293 12.8292 19.4308 16.0743C18.8463 16.1421 18.4213 16.3391 18.0615 16.506C18.0392 16.5163 18.0171 16.5265 17.9953 16.5366L17.9952 16.5366C17.5566 16.7393 17.1446 16.9131 16.2419 16.9131C15.4994 16.9131 15.1345 16.7468 14.679 16.5366C14.6677 16.5314 14.6563 16.5261 14.6449 16.5208C14.1837 16.3078 13.6082 16.0419 12.758 16.0419C11.9077 16.0419 11.3322 16.3078 10.871 16.5209C10.8596 16.5262 10.8482 16.5314 10.837 16.5366C10.3815 16.7468 10.0166 16.9131 9.27404 16.9131C8.37036 16.9131 7.93416 16.7394 7.47771 16.5356L7.47754 16.5355C7.44586 16.5214 7.41374 16.5069 7.38113 16.4923ZM3.17742 0.8C1.86829 0.8 0.8 1.86829 0.8 3.17742V25.8226C0.8 27.1317 1.86829 28.2 3.17742 28.2H22.3387C23.6478 28.2 24.7161 27.1317 24.7161 25.8226V3.17742C24.7161 1.86829 23.6478 0.8 22.3387 0.8H3.17742ZM12.758 9.07435C8.32341 9.07435 4.71928 12.6785 4.71928 17.1131C4.71928 21.5474 8.3234 25.1518 12.758 25.1518C17.1926 25.1518 20.7967 21.5476 20.7967 17.1131C20.7967 12.6785 17.1926 9.07435 12.758 9.07435Z" fill="#D0D0D0" stroke="#D0D0D0" stroke-width="0.4"/>
</svg>
