<svg width="32" height="32" viewBox="0 0 32 32" fill="none" xmlns="http://www.w3.org/2000/svg">
    <path fill-rule="evenodd" clip-rule="evenodd" d="M10.5 3C11.0523 3 11.5 3.44772 11.5 4V9C11.5 9.55228 11.0523 10 10.5 10C9.94772 10 9.5 9.55228 9.5 9V4C9.5 3.44772 9.94772 3 10.5 3Z" fill="#D0D0D0"/>
    <path fill-rule="evenodd" clip-rule="evenodd" d="M10.5 13.5C11.0523 13.5 11.5 13.9477 11.5 14.5V28C11.5 28.5523 11.0523 29 10.5 29C9.94772 29 9.5 28.5523 9.5 28V14.5C9.5 13.9477 9.94772 13.5 10.5 13.5Z" fill="#D0D0D0"/>
    <path fill-rule="evenodd" clip-rule="evenodd" d="M7.1644 3.01364C7.70917 3.10444 8.07719 3.61966 7.98639 4.16443L7.00086 10.0776C7.0208 10.9778 7.38706 11.8368 8.02513 12.4749C8.6815 13.1313 9.57174 13.5 10.5 13.5C11.4283 13.5 12.3185 13.1313 12.9749 12.4749C13.6129 11.8368 13.9792 10.9778 13.9991 10.0776L13.0136 4.16443C12.9228 3.61966 13.2908 3.10444 13.8356 3.01364C14.3804 2.92285 14.8956 3.29086 14.9864 3.83564L15.9864 9.83563C15.9954 9.88997 16 9.94495 16 10C16 11.4587 15.4205 12.8577 14.3891 13.8891C13.3576 14.9206 11.9587 15.5 10.5 15.5C9.04131 15.5 7.64236 14.9206 6.61091 13.8891C5.57946 12.8577 5 11.4587 5 10C5 9.94495 5.00455 9.88997 5.01361 9.83563L6.01361 3.83564C6.1044 3.29086 6.61963 2.92285 7.1644 3.01364Z" fill="#D0D0D0"/>
    <path fill-rule="evenodd" clip-rule="evenodd" d="M26.0737 3.18094C26.3409 3.36809 26.5 3.67379 26.5 4.00001V28C26.5 28.5523 26.0523 29 25.5 29C24.9477 29 24.5 28.5523 24.5 28V21H18.5C18.2162 21 17.9458 20.8795 17.7562 20.6684C17.5665 20.4573 17.4755 20.1756 17.5057 19.8935L18.5 20C17.5057 19.8935 17.5057 19.8938 17.5057 19.8935L17.5061 19.8895L17.5071 19.8804L17.5108 19.8473C17.5141 19.8187 17.5189 19.7772 17.5253 19.7235C17.5381 19.6161 17.5575 19.4601 17.584 19.2619C17.6371 18.8655 17.7188 18.2995 17.8342 17.615C18.0647 16.2483 18.4312 14.3981 18.9754 12.4774C19.5174 10.5642 20.2472 8.53976 21.2185 6.84624C22.177 5.17494 23.4542 3.67988 25.1583 3.06021C25.4648 2.94873 25.8065 2.99379 26.0737 3.18094ZM19.6404 19H24.5V5.80068C23.9558 6.30863 23.4385 6.99538 22.9534 7.84127C22.0966 9.33525 21.4201 11.1858 20.8996 13.0226C20.3813 14.8519 20.0291 16.6267 19.8064 17.9475C19.7396 18.3439 19.6846 18.6984 19.6404 19Z" fill="#D0D0D0"/>
</svg>
