<svg width="24" height="24" viewBox="0 0 24 24" fill="none" xmlns="http://www.w3.org/2000/svg">
    <path fill-rule="evenodd" clip-rule="evenodd" d="M4.21798 7.33602C4.21747 7.33643 4.21696 7.33684 4.21644 7.33724L4.21629 7.33736C4.21623 7.33741 4.21638 7.33729 4.21676 7.33699L4.21749 7.33641L4.21798 7.33602ZM20.25 6.74991L20.7185 7.33557C21.042 7.07681 21.0944 6.60484 20.8357 6.28139C20.5775 5.95865 20.107 5.90574 19.7836 6.16257C19.7831 6.16298 19.7826 6.16339 19.7821 6.16381L19.7826 6.16342L19.7808 6.1648C19.777 6.16769 19.7698 6.17318 19.7593 6.18103C19.7382 6.19672 19.7037 6.22174 19.6566 6.25398C19.5622 6.31853 19.418 6.4115 19.2295 6.51617C18.8515 6.72621 18.3035 6.97909 17.6306 7.14731C16.3032 7.47917 14.4642 7.4913 12.4161 6.12588C9.9642 4.4913 7.67816 4.47917 6.00563 4.89731C5.17849 5.10409 4.50773 5.41371 4.04205 5.67242C3.80859 5.80212 3.62475 5.9201 3.49644 6.00789C3.43222 6.05182 3.38174 6.08832 3.34571 6.11511C3.3277 6.12851 3.31328 6.13949 3.30255 6.14777L3.28923 6.15814L3.28467 6.16175L3.28291 6.16314L3.28216 6.16374C3.28183 6.16401 3.28151 6.16426 3.75 6.74987L3.28151 6.16426C2.95806 6.42302 2.90562 6.89499 3.16438 7.21844C3.42257 7.54118 3.89306 7.59409 4.21644 7.33724L4.21929 7.33503C4.22303 7.33214 4.23022 7.32664 4.24077 7.3188C4.26187 7.30311 4.29635 7.27808 4.34346 7.24585C4.43781 7.18129 4.58209 7.08833 4.77051 6.98366C5.14857 6.77362 5.69656 6.52074 6.36943 6.35252C7.69689 6.02065 9.53586 6.00852 11.584 7.37395C14.0359 9.00852 16.3219 9.02066 17.9944 8.60252C18.8216 8.39574 19.4923 8.08612 19.958 7.82741C20.1915 7.69771 20.3753 7.57973 20.5036 7.49194C20.5678 7.44801 20.6183 7.41151 20.6543 7.38472C20.6724 7.37132 20.6868 7.36034 20.6975 7.35206L20.7108 7.34169L20.7154 7.33808L20.7171 7.33669L20.7179 7.33609C20.7182 7.33582 20.7185 7.33557 20.25 6.74991Z" fill="#D0D0D0"/>
    <path fill-rule="evenodd" clip-rule="evenodd" d="M4.21798 12.586C4.21747 12.5864 4.21696 12.5868 4.21644 12.5872L4.21629 12.5874C4.21623 12.5874 4.21638 12.5873 4.21676 12.587L4.21749 12.5864L4.21798 12.586ZM20.25 11.9999L20.7185 12.5856C21.042 12.3268 21.0944 11.8548 20.8357 11.5314C20.5775 11.2087 20.107 11.1557 19.7836 11.4126C19.7831 11.413 19.7826 11.4134 19.7821 11.4138L19.7826 11.4134L19.7808 11.4148C19.777 11.4177 19.7698 11.4232 19.7593 11.431C19.7382 11.4467 19.7037 11.4717 19.6566 11.504C19.5622 11.5685 19.418 11.6615 19.2295 11.7662C18.8515 11.9762 18.3035 12.2291 17.6306 12.3973C16.3032 12.7292 14.4642 12.7413 12.4161 11.3759C9.9642 9.7413 7.67816 9.72917 6.00563 10.1473C5.17849 10.3541 4.50773 10.6637 4.04205 10.9224C3.80859 11.0521 3.62475 11.1701 3.49644 11.2579C3.43222 11.3018 3.38174 11.3383 3.34571 11.3651C3.3277 11.3785 3.31328 11.3895 3.30255 11.3978L3.28923 11.4081L3.28467 11.4117L3.28291 11.4131L3.28216 11.4137C3.28183 11.414 3.28151 11.4143 3.75 11.9999L3.28151 11.4143C2.95806 11.673 2.90562 12.145 3.16438 12.4684C3.42257 12.7912 3.89306 12.8441 4.21644 12.5872L4.21929 12.585C4.22303 12.5821 4.23022 12.5766 4.24077 12.5688C4.26187 12.5531 4.29635 12.5281 4.34346 12.4958C4.43781 12.4313 4.58209 12.3383 4.77051 12.2337C5.14857 12.0236 5.69656 11.7707 6.36943 11.6025C7.69689 11.2707 9.53586 11.2585 11.584 12.624C14.0359 14.2585 16.3219 14.2707 17.9944 13.8525C18.8216 13.6457 19.4923 13.3361 19.958 13.0774C20.1915 12.9477 20.3753 12.8297 20.5036 12.7419C20.5678 12.698 20.6183 12.6615 20.6543 12.6347C20.6724 12.6213 20.6868 12.6103 20.6975 12.6021L20.7108 12.5917L20.7154 12.5881L20.7171 12.5867L20.7179 12.5861C20.7182 12.5858 20.7185 12.5856 20.25 11.9999Z" fill="#D0D0D0"/>
    <path fill-rule="evenodd" clip-rule="evenodd" d="M4.21798 17.836C4.21747 17.8364 4.21696 17.8368 4.21644 17.8372L4.21629 17.8374C4.21623 17.8374 4.21638 17.8373 4.21676 17.837L4.21749 17.8364L4.21798 17.836ZM20.25 17.2499L20.7185 17.8356C21.042 17.5768 21.0944 17.1048 20.8357 16.7814C20.5775 16.4587 20.107 16.4057 19.7836 16.6626C19.7831 16.663 19.7826 16.6634 19.7821 16.6638L19.7826 16.6634L19.7808 16.6648C19.777 16.6677 19.7698 16.6732 19.7593 16.681C19.7382 16.6967 19.7037 16.7217 19.6566 16.754C19.5622 16.8185 19.418 16.9115 19.2295 17.0162C18.8515 17.2262 18.3035 17.4791 17.6306 17.6473C16.3032 17.9792 14.4642 17.9913 12.4161 16.6259C9.9642 14.9913 7.67816 14.9792 6.00563 15.3973C5.17849 15.6041 4.50773 15.9137 4.04205 16.1724C3.80859 16.3021 3.62475 16.4201 3.49644 16.5079C3.43222 16.5518 3.38174 16.5883 3.34571 16.6151C3.3277 16.6285 3.31328 16.6395 3.30255 16.6478L3.28923 16.6581L3.28467 16.6617L3.28291 16.6631L3.28216 16.6637C3.28183 16.664 3.28151 16.6643 3.75 17.2499L3.28151 16.6643C2.95806 16.923 2.90562 17.395 3.16438 17.7184C3.42257 18.0412 3.89306 18.0941 4.21644 17.8372L4.21929 17.835C4.22303 17.8321 4.23022 17.8266 4.24077 17.8188C4.26187 17.8031 4.29635 17.7781 4.34346 17.7458C4.43781 17.6813 4.58209 17.5883 4.77051 17.4837C5.14857 17.2736 5.69656 17.0207 6.36943 16.8525C7.69689 16.5207 9.53586 16.5085 11.584 17.874C14.0359 19.5085 16.3219 19.5207 17.9944 19.1025C18.8216 18.8957 19.4923 18.5861 19.958 18.3274C20.1915 18.1977 20.3753 18.0797 20.5036 17.9919C20.5678 17.948 20.6183 17.9115 20.6543 17.8847C20.6724 17.8713 20.6868 17.8603 20.6975 17.8521L20.7108 17.8417L20.7154 17.8381L20.7171 17.8367L20.7179 17.8361C20.7182 17.8358 20.7185 17.8356 20.25 17.2499Z" fill="#D0D0D0"/>
</svg>
