<svg width="32" height="32" viewBox="0 0 32 32" fill="none" xmlns="http://www.w3.org/2000/svg">
    <path fill-rule="evenodd" clip-rule="evenodd" d="M15.9998 19.9982C14.6225 19.9982 13.2985 20.5306 12.3046 21.4841C11.9061 21.8665 11.2731 21.8534 10.8907 21.4548C10.5084 21.0563 10.5215 20.4233 10.92 20.0409C12.2863 18.7301 14.1064 17.9982 15.9998 17.9982C17.8932 17.9982 19.7133 18.7301 21.0796 20.0409C21.4781 20.4233 21.4913 21.0563 21.1089 21.4548C20.7266 21.8534 20.0935 21.8665 19.695 21.4841C18.7011 20.5306 17.3771 19.9982 15.9998 19.9982Z" fill="#D0D0D0"/>
    <path fill-rule="evenodd" clip-rule="evenodd" d="M16 14.0017C13.038 14.0017 10.1934 15.1596 8.07338 17.2282C7.6781 17.6139 7.04498 17.6062 6.65927 17.2109C6.27357 16.8156 6.28133 16.1825 6.67662 15.7968C9.17016 13.3636 12.5161 12.0017 16 12.0017C19.4839 12.0017 22.8298 13.3636 25.3234 15.7968C25.7187 16.1825 25.7264 16.8156 25.3407 17.2109C24.955 17.6062 24.3219 17.6139 23.9266 17.2282C21.8066 15.1596 18.962 14.0017 16 14.0017Z" fill="#D0D0D0"/>
    <path fill-rule="evenodd" clip-rule="evenodd" d="M16.0002 8.00232C11.4493 8.00232 7.08108 9.79297 3.83961 12.9873C3.44623 13.375 2.81308 13.3703 2.42543 12.977C2.03778 12.5836 2.04241 11.9504 2.43579 11.5628C6.05145 7.99969 10.9239 6.00232 16.0002 6.00232C21.0765 6.00232 25.9489 7.99969 29.5646 11.5628C29.958 11.9504 29.9626 12.5836 29.575 12.977C29.1873 13.3703 28.5542 13.375 28.1608 12.9873C24.9193 9.79297 20.5511 8.00232 16.0002 8.00232Z" fill="#D0D0D0"/>
    <path d="M16 26.5C16.8284 26.5 17.5 25.8284 17.5 25C17.5 24.1716 16.8284 23.5 16 23.5C15.1716 23.5 14.5 24.1716 14.5 25C14.5 25.8284 15.1716 26.5 16 26.5Z" fill="#D0D0D0"/>
</svg>
