<svg width="115" height="51" viewBox="0 0 115 51" fill="none" xmlns="http://www.w3.org/2000/svg">
    <path d="M52.484 37.896C57.944 37.792 61.8527 36.7173 64.21 34.672V38H50.17V19.8H52.484V37.896ZM73.5152 38.234C71.4698 38.234 69.7625 37.6447 68.3932 36.466C67.0412 35.2873 66.3652 33.762 66.3652 31.89C66.3652 30.0007 67.0412 28.4667 68.3932 27.288C69.7625 26.1093 71.4698 25.52 73.5152 25.52C75.5432 25.52 77.2332 26.1093 78.5852 27.288C79.9545 28.4667 80.6392 30.0007 80.6392 31.89C80.6392 33.762 79.9545 35.2873 78.5852 36.466C77.2332 37.6447 75.5432 38.234 73.5152 38.234ZM73.5152 38.156C74.9365 38.156 76.0632 37.6187 76.8952 36.544C77.7272 35.452 78.1432 33.9007 78.1432 31.89C78.1432 29.8793 77.7272 28.328 76.8952 27.236C76.0632 26.144 74.9365 25.598 73.5152 25.598C72.0765 25.598 70.9412 26.144 70.1092 27.236C69.2772 28.328 68.8612 29.8793 68.8612 31.89C68.8612 33.9007 69.2772 35.452 70.1092 36.544C70.9412 37.6187 72.0765 38.156 73.5152 38.156ZM91.0587 35.582C95.2707 35.9807 97.3767 37.3067 97.3767 39.56C97.3767 40.4093 97.0127 41.12 96.2847 41.692C95.574 42.264 94.742 42.654 93.7887 42.862C92.8527 43.0873 91.8387 43.2 90.7467 43.2C89.7067 43.2 88.7187 43.122 87.7827 42.966C86.864 42.8273 86.0233 42.524 85.2607 42.056C84.498 41.588 84.1167 40.99 84.1167 40.262C84.1167 38.91 85.4427 38.0607 88.0947 37.714L88.1467 37.766C87.54 37.922 87.0633 38.2167 86.7167 38.65C86.3873 39.0833 86.2227 39.6033 86.2227 40.21C86.2227 41.0593 86.656 41.7527 87.5227 42.29C88.3893 42.8447 89.464 43.122 90.7467 43.122C92.168 43.122 93.2947 42.8707 94.1267 42.368C94.976 41.8827 95.4007 41.2067 95.4007 40.34C95.4007 38.676 93.8493 37.7053 90.7467 37.428C87.6267 37.1507 85.6853 36.8907 84.9227 36.648C83.8827 36.2147 83.3367 35.608 83.2847 34.828C83.2847 33.684 84.2293 32.9647 86.1187 32.67C84.888 31.9593 84.2727 30.9627 84.2727 29.68C84.2727 28.3627 84.888 27.34 86.1187 26.612C87.3493 25.884 88.8227 25.52 90.5387 25.52H90.6427L90.6687 25.494C91.9513 25.4767 93.104 25.026 94.1267 24.142C95.1493 23.2407 95.808 22.2267 96.1027 21.1H96.1807C96.6487 22.3653 96.406 23.3967 95.4527 24.194C94.4993 24.9913 93.1213 25.442 91.3187 25.546C92.8787 25.65 94.1873 26.066 95.2447 26.794C96.302 27.5047 96.8307 28.4667 96.8307 29.68C96.8307 30.98 96.2153 31.9767 94.9847 32.67C93.7713 33.346 92.2893 33.684 90.5387 33.684C88.788 33.684 87.3407 33.3547 86.1967 32.696C84.9487 32.9907 84.3247 33.4587 84.3247 34.1C84.3247 34.4987 84.7233 34.7847 85.5207 34.958C86.3353 35.114 88.1813 35.322 91.0587 35.582ZM93.5287 26.794C92.9047 25.9967 91.908 25.598 90.5387 25.598C89.1693 25.598 88.164 25.9967 87.5227 26.794C86.8987 27.5913 86.5867 28.5533 86.5867 29.68C86.5867 30.7893 86.8987 31.7253 87.5227 32.488C88.164 33.2333 89.1693 33.606 90.5387 33.606C91.9253 33.606 92.9307 33.2333 93.5547 32.488C94.1787 31.7253 94.4907 30.7893 94.4907 29.68C94.4907 28.5533 94.17 27.5913 93.5287 26.794ZM106.914 38.234C104.869 38.234 103.161 37.6447 101.792 36.466C100.44 35.2873 99.764 33.762 99.764 31.89C99.764 30.0007 100.44 28.4667 101.792 27.288C103.161 26.1093 104.869 25.52 106.914 25.52C108.942 25.52 110.632 26.1093 111.984 27.288C113.353 28.4667 114.038 30.0007 114.038 31.89C114.038 33.762 113.353 35.2873 111.984 36.466C110.632 37.6447 108.942 38.234 106.914 38.234ZM106.914 38.156C108.335 38.156 109.462 37.6187 110.294 36.544C111.126 35.452 111.542 33.9007 111.542 31.89C111.542 29.8793 111.126 28.328 110.294 27.236C109.462 26.144 108.335 25.598 106.914 25.598C105.475 25.598 104.34 26.144 103.508 27.236C102.676 28.328 102.26 29.8793 102.26 31.89C102.26 33.9007 102.676 35.452 103.508 36.544C104.34 37.6187 105.475 38.156 106.914 38.156Z" fill="#B7B7B7"/>
    <path d="M26.5928 14.479C26.2984 14.353 25.954 14.4871 25.8263 14.7828C25.6986 15.0784 25.8345 15.4211 26.1301 15.5492C32.6791 18.3834 36.9112 24.8246 36.9112 31.9598C36.9112 39.3456 32.4074 45.6982 26.0031 48.4192V40.2218C26.0031 39.9619 25.8311 39.7326 25.5806 39.661L23.6715 39.1158V23.0258C23.6715 23.0149 23.667 23.0055 23.6662 22.9945C23.665 22.9701 23.6593 22.9474 23.6544 22.9234C23.6463 22.8774 23.6341 22.8343 23.6154 22.792C23.6056 22.7693 23.5951 22.7489 23.582 22.7278C23.5576 22.6871 23.5284 22.6522 23.4946 22.618C23.4788 22.6021 23.4653 22.5855 23.4475 22.5712C23.3926 22.5273 23.332 22.4907 23.262 22.4692C23.0238 22.3939 22.1593 22.1313 21.3384 21.9768L21.3388 12.8245C21.3388 12.1817 20.8159 11.6588 20.173 11.6588H19.5899V0.583097C19.5899 0.261465 19.3289 0 19.0068 0C18.6852 0 18.425 0.261049 18.425 0.582691V15.7389H17.8411C16.877 15.7389 16.0934 16.5237 16.0934 17.4878V31.9517C14.8816 32.1335 13.7257 32.3494 13.6585 32.3608C13.3816 32.4112 13.1787 32.6532 13.1787 32.9358V48.8425C6.19344 46.4109 1.16514 39.7647 1.16514 31.9614C1.16514 24.8333 5.39159 18.3937 11.9317 15.5571C12.2273 15.4291 12.3623 15.0855 12.2346 14.7907C12.1069 14.4951 11.7625 14.3601 11.4681 14.4877C4.50147 17.5101 0 24.369 0 31.9621C0 42.4601 8.54066 51 19.0379 51C29.5348 51 38.0758 42.4593 38.0758 31.9621C38.0753 24.3615 33.5684 17.5002 26.592 14.4804L26.5928 14.479ZM17.2588 31.4777C17.2588 31.156 17.5207 30.8946 17.8419 30.8946H18.425L18.4246 31.7692V31.7948C18.1193 31.7452 17.8021 31.7355 17.4813 31.7733C17.4089 31.7822 17.3337 31.7912 17.2584 31.8005L17.2588 31.4777ZM17.2588 19.8191C17.2588 19.4978 17.5207 19.236 17.8419 19.236H18.425V20.4017H17.8419C17.6366 20.4017 17.4422 20.4436 17.2588 20.5091V19.8191ZM21.3145 23.1623C21.3759 23.1753 21.4369 23.1879 21.4999 23.2017C21.5654 23.2164 21.6316 23.2322 21.6979 23.2485C21.7475 23.2603 21.7971 23.2717 21.8467 23.2839C21.9651 23.3131 22.0834 23.344 22.1993 23.3749C22.2257 23.3818 22.2505 23.3896 22.2769 23.3965C22.3546 23.4176 22.4306 23.4392 22.5055 23.4599V24.5798C21.7597 24.3777 20.6907 24.1325 20.1032 24.2049C19.919 24.2268 19.7506 24.2801 19.5908 24.346V23.8808C19.5908 23.5933 19.6758 23.1001 20.2442 23.0309C20.2963 23.0244 20.363 23.0253 20.4366 23.0285C20.4728 23.0301 20.5147 23.035 20.5549 23.0383C20.5968 23.0423 20.6387 23.046 20.6854 23.0517C20.7367 23.0582 20.7907 23.0663 20.8465 23.0749C20.8904 23.0818 20.9339 23.0887 20.9798 23.0968C21.0392 23.1074 21.0998 23.1184 21.1624 23.1306C21.2124 23.1407 21.2632 23.1509 21.3145 23.1623L21.3145 23.1623ZM14.3442 42.7529C15.007 42.6399 16.2358 42.437 17.2588 42.3036V43.4596C16.272 43.5844 15.0797 43.7779 14.3442 43.902V42.7529ZM14.3442 45.0844C15.0074 44.9714 16.237 44.7685 17.2588 44.6351V45.7915C16.272 45.9163 15.0797 46.1099 14.3442 46.2339V45.0844ZM17.2588 40.8048V41.1276C16.272 41.2525 15.0797 41.446 14.3442 41.57V40.4209C15.0639 40.2985 16.4513 40.07 17.5159 39.9387C17.3516 40.2241 17.2589 40.5197 17.2589 40.8048L17.2588 40.8048ZM14.3442 47.416C15.007 47.303 16.2358 47.1001 17.2588 46.9667V48.1227C16.272 48.2475 15.0797 48.4411 14.3442 48.5651V47.416ZM18.4246 45.4679C18.4246 45.2772 18.6381 44.9299 19.0467 44.6356C19.6802 44.1785 20.4695 44.0431 21.1798 44.2802L24.837 45.3252V46.4446L21.5235 45.4992C20.502 45.1593 19.3513 45.3431 18.4246 45.9843L18.4246 45.4679ZM24.837 44.1123L21.5235 43.1669C20.5021 42.8266 19.3514 43.0099 18.4246 43.652V43.1364C18.4246 42.9457 18.6381 42.5984 19.0467 42.3041C19.6802 41.847 20.4695 41.7124 21.1798 41.9487L24.837 42.9937L24.837 44.1123ZM18.6499 38.8449C18.6287 38.838 18.6124 38.8237 18.5909 38.8193C18.2306 38.7416 17.8578 38.7249 17.4817 38.7684C16.4582 38.8904 15.1359 39.1047 14.3441 39.2381V38.089C15.0874 37.9625 16.5431 37.7222 17.6191 37.5941C18.5693 37.4815 19.2984 37.9857 19.5184 38.4679C19.2175 38.5533 18.9259 38.681 18.6498 38.8449L18.6499 38.8449ZM20.1735 21.8691C20.1503 21.8707 20.1251 21.8715 20.1031 21.8736C19.919 21.8955 19.7506 21.9488 19.5908 22.0147V21.5682H20.1739L20.1735 21.8691ZM22.5054 29.244C21.7597 29.0423 20.6906 28.7979 20.104 28.8679C19.9198 28.8898 19.7514 28.9427 19.5908 29.009V28.5434C19.5908 28.2559 19.6758 27.7635 20.2442 27.694C20.6338 27.6468 21.6857 27.8887 22.5055 28.1238L22.5054 29.244ZM19.5908 30.8754C19.5908 30.5879 19.6758 30.0955 20.2442 30.0259C20.6337 29.9788 21.6857 30.2207 22.5055 30.4557V31.576C21.7605 31.3743 20.6919 31.1295 20.104 31.2007C19.9202 31.2227 19.7506 31.2706 19.5908 31.3349L19.5908 30.8754ZM22.5054 26.9129C21.7597 26.7116 20.6906 26.4681 20.104 26.5368C19.9198 26.5587 19.7514 26.6116 19.5908 26.6779V26.2123C19.5908 25.9248 19.6758 25.4316 20.2442 25.3625C20.6313 25.3145 21.6853 25.5564 22.5055 25.7914L22.5054 26.9129ZM20.2442 32.3576C20.6337 32.3104 21.6857 32.5524 22.5054 32.7874V33.9068C21.9573 33.7576 21.2352 33.5856 20.6557 33.5348C20.5369 33.1639 20.3133 32.813 19.9794 32.517C19.9607 32.4999 19.9392 32.4861 19.9201 32.4698C20.0095 32.4113 20.1165 32.3731 20.2442 32.3576L20.2442 32.3576ZM20.7565 34.718C21.2514 34.788 21.9333 34.9547 22.5054 35.1186V36.238C21.9882 36.0969 21.3173 35.9367 20.7565 35.8765V34.718ZM19.5908 20.4029V19.8198H20.1739V20.4029H19.5908ZM19.5908 18.654V18.0709H20.1739V18.654H19.5908ZM20.1735 15.1562H19.5904V14.5731H20.1735V15.1562ZM20.1735 16.322V16.9051H19.5904V16.322H20.1735ZM17.2588 22.1513C17.2588 21.8301 17.5207 21.5682 17.8419 21.5682H18.425V22.734H17.8419C17.6365 22.734 17.4422 22.7758 17.2588 22.8413V22.1513ZM17.2588 24.4832C17.2588 24.162 17.5207 23.9001 17.8419 23.9001H18.425L18.4246 24.7748V25.0663H17.8415C17.6361 25.0663 17.4418 25.1082 17.2584 25.1737L17.2588 24.4832ZM17.2588 26.8147C17.2588 26.4931 17.5207 26.2317 17.8419 26.2317H18.425V27.3974H17.8419C17.6365 27.3974 17.4422 27.4393 17.2588 27.5048V26.8147ZM17.2588 29.1467C17.2588 28.825 17.5207 28.5636 17.8419 28.5636H18.425V29.7293H17.8419C17.6365 29.7293 17.4422 29.7712 17.2588 29.8367V29.1467ZM19.5907 36.903C19.0231 36.5427 18.2908 36.3386 17.4816 36.4374C16.4581 36.5594 15.1358 36.7737 14.344 36.907V35.7579C15.0873 35.6315 16.543 35.3912 17.619 35.2631C18.2073 35.1891 18.8035 35.3627 19.2052 35.7197C19.45 35.9373 19.5906 36.1971 19.5906 36.4333L19.5907 36.903ZM17.2588 49.2996V49.7449C16.7424 49.6936 16.2333 49.6168 15.7303 49.5221C16.2316 49.4436 16.7688 49.3635 17.2588 49.2996ZM18.4246 47.8009C18.4246 47.6102 18.638 47.2629 19.0467 46.9685C19.6802 46.5115 20.4695 46.3773 21.1798 46.6131L24.837 47.6581V48.7767L21.5234 47.8314C20.502 47.4914 19.3513 47.6752 18.4245 48.3165L18.4246 47.8009ZM24.837 41.7813L21.5235 40.8359C20.502 40.4956 19.3513 40.6798 18.4246 41.321V40.8058C18.4246 40.6151 18.638 40.2679 19.0467 39.9735C19.6802 39.5164 20.4695 39.3818 21.1798 39.6181L24.837 40.6627L24.837 41.7813ZM21.5235 38.5044C21.2738 38.421 21.0164 38.371 20.7562 38.3495V37.0511C21.251 37.121 21.933 37.2877 22.5051 37.4516V38.785L21.5235 38.5044ZM20.1735 12.8252V13.4083H19.5904V12.8252H20.1735ZM17.8419 16.9057H18.425V18.0714H17.8419C17.6366 18.0714 17.4422 18.1133 17.2588 18.1788V17.4887C17.2588 17.1675 17.5207 16.9056 17.8419 16.9056V16.9057ZM17.6191 32.9321C18.2075 32.8585 18.8036 33.0317 19.2053 33.3887C19.4501 33.6059 19.5908 33.8661 19.5908 34.1019V34.563C18.9857 34.1837 18.2433 34.0157 17.4816 34.106C16.4582 34.228 15.1358 34.4423 14.3441 34.5756V33.4265C15.0886 33.3001 16.5452 33.0598 17.619 32.9321L17.6191 32.9321ZM18.5454 49.8215C18.6475 49.656 18.8105 49.471 19.0468 49.3002C19.6803 48.8431 20.4695 48.7085 21.1799 48.9448L22.847 49.4209C21.6186 49.6885 20.3451 49.8336 19.0374 49.8336C18.8723 49.8336 18.7092 49.8259 18.5454 49.8215L18.5454 49.8215Z" fill="#B7B7B7"/>
</svg>
