<svg width="20" height="20" viewBox="0 0 20 20" fill="none" xmlns="http://www.w3.org/2000/svg">
    <path fill-rule="evenodd" clip-rule="evenodd" d="M3.125 9.0625C3.125 5.78331 5.78331 3.125 9.0625 3.125C12.3417 3.125 15 5.78331 15 9.0625C15 12.3417 12.3417 15 9.0625 15C5.78331 15 3.125 12.3417 3.125 9.0625ZM9.0625 1.875C5.09295 1.875 1.875 5.09295 1.875 9.0625C1.875 13.032 5.09295 16.25 9.0625 16.25C10.8223 16.25 12.4343 15.6176 13.6838 14.5676L17.0581 17.9419C17.3021 18.186 17.6979 18.186 17.9419 17.9419C18.186 17.6979 18.186 17.3021 17.9419 17.0581L14.5676 13.6838C15.6176 12.4343 16.25 10.8223 16.25 9.0625C16.25 5.09295 13.032 1.875 9.0625 1.875Z" fill="#181818"/>
    <path d="M13.6838 14.5676L13.8605 14.3909C13.7688 14.2992 13.6222 14.2928 13.5229 14.3762L13.6838 14.5676ZM17.0581 17.9419L17.2348 17.7652V17.7652L17.0581 17.9419ZM17.9419 17.9419L17.7652 17.7652L17.7652 17.7652L17.9419 17.9419ZM17.9419 17.0581L17.7652 17.2348H17.7652L17.9419 17.0581ZM14.5676 13.6838L14.3762 13.5229C14.2928 13.6222 14.2992 13.7688 14.3909 13.8605L14.5676 13.6838ZM9.0625 2.875C5.64524 2.875 2.875 5.64524 2.875 9.0625H3.375C3.375 5.92138 5.92138 3.375 9.0625 3.375V2.875ZM15.25 9.0625C15.25 5.64524 12.4798 2.875 9.0625 2.875V3.375C12.2036 3.375 14.75 5.92138 14.75 9.0625H15.25ZM9.0625 15.25C12.4798 15.25 15.25 12.4798 15.25 9.0625H14.75C14.75 12.2036 12.2036 14.75 9.0625 14.75V15.25ZM2.875 9.0625C2.875 12.4798 5.64524 15.25 9.0625 15.25V14.75C5.92138 14.75 3.375 12.2036 3.375 9.0625H2.875ZM2.125 9.0625C2.125 5.23102 5.23102 2.125 9.0625 2.125V1.625C4.95488 1.625 1.625 4.95488 1.625 9.0625H2.125ZM9.0625 16C5.23102 16 2.125 12.894 2.125 9.0625H1.625C1.625 13.1701 4.95488 16.5 9.0625 16.5V16ZM13.5229 14.3762C12.3168 15.3898 10.7613 16 9.0625 16V16.5C10.8833 16.5 12.5518 15.8454 13.8446 14.759L13.5229 14.3762ZM17.2348 17.7652L13.8605 14.3909L13.507 14.7444L16.8813 18.1187L17.2348 17.7652ZM17.7652 17.7652C17.6187 17.9116 17.3813 17.9116 17.2348 17.7652L16.8813 18.1187C17.223 18.4604 17.777 18.4604 18.1187 18.1187L17.7652 17.7652ZM17.7652 17.2348C17.9116 17.3813 17.9116 17.6187 17.7652 17.7652L18.1187 18.1187C18.4604 17.777 18.4604 17.223 18.1187 16.8813L17.7652 17.2348ZM14.3909 13.8605L17.7652 17.2348L18.1187 16.8813L14.7444 13.507L14.3909 13.8605ZM16 9.0625C16 10.7613 15.3898 12.3168 14.3762 13.5229L14.759 13.8446C15.8454 12.5518 16.5 10.8833 16.5 9.0625H16ZM9.0625 2.125C12.894 2.125 16 5.23102 16 9.0625H16.5C16.5 4.95488 13.1701 1.625 9.0625 1.625V2.125Z" fill="#181818"/>
</svg>
