<svg width="33" height="32" viewBox="0 0 33 32" fill="none" xmlns="http://www.w3.org/2000/svg">
    <path fill-rule="evenodd" clip-rule="evenodd" d="M16.5 10C14.8431 10 13.5 11.3431 13.5 13C13.5 14.6569 14.8431 16 16.5 16C18.1569 16 19.5 14.6569 19.5 13C19.5 11.3431 18.1569 10 16.5 10ZM11.5 13C11.5 10.2386 13.7386 8 16.5 8C19.2614 8 21.5 10.2386 21.5 13C21.5 15.7614 19.2614 18 16.5 18C13.7386 18 11.5 15.7614 11.5 13Z" fill="#A18C50"/>
    <path fill-rule="evenodd" clip-rule="evenodd" d="M16.5 4C14.1131 4 11.8239 4.94821 10.136 6.63604C8.44821 8.32387 7.5 10.6131 7.5 13C7.5 17.1399 9.81185 20.9096 12.2546 23.7188C13.4638 25.1094 14.6755 26.2305 15.5851 27.0037C15.9449 27.3095 16.2562 27.5599 16.5 27.75C16.7438 27.5599 17.0551 27.3095 17.4149 27.0037C18.3245 26.2305 19.5362 25.1094 20.7454 23.7188C23.1882 20.9096 25.5 17.1399 25.5 13C25.5 10.6131 24.5518 8.32387 22.864 6.63604C21.1761 4.94821 18.8869 4 16.5 4ZM16.5 29C15.9265 29.8192 15.9263 29.819 15.9259 29.8188L15.9251 29.8182L15.9228 29.8166L15.9154 29.8114L15.89 29.7933C15.8683 29.7778 15.8375 29.7557 15.7981 29.7269C15.7192 29.6693 15.6059 29.5853 15.4631 29.4762C15.1775 29.2579 14.7732 28.9384 14.2899 28.5276C13.3245 27.707 12.0362 26.5156 10.7454 25.0312C8.18815 22.0904 5.5 17.8601 5.5 13C5.5 10.0826 6.65893 7.28473 8.72183 5.22183C10.7847 3.15893 13.5826 2 16.5 2C19.4174 2 22.2153 3.15893 24.2782 5.22183C26.3411 7.28473 27.5 10.0826 27.5 13C27.5 17.8601 24.8118 22.0904 22.2546 25.0312C20.9638 26.5156 19.6755 27.707 18.7101 28.5276C18.2268 28.9384 17.8225 29.2579 17.5369 29.4762C17.3941 29.5853 17.2808 29.6693 17.2019 29.7269C17.1625 29.7557 17.1317 29.7778 17.11 29.7933L17.0846 29.8114L17.0772 29.8166L17.0749 29.8182L17.0741 29.8188C17.0737 29.819 17.0735 29.8192 16.5 29ZM16.5 29L17.0735 29.8192C16.7291 30.0603 16.2709 30.0603 15.9265 29.8192L16.5 29Z" fill="#A18C50"/>
</svg>
