<svg width="20" height="17" viewBox="0 0 20 17" fill="none" xmlns="http://www.w3.org/2000/svg">
    <path fill-rule="evenodd" clip-rule="evenodd" d="M1.78396 8.50006C1.87504 8.65744 1.99578 8.85802 2.14536 9.08962C2.52955 9.68449 3.09849 10.4756 3.83714 11.2635C5.32964 12.8555 7.41631 14.3334 10.0001 14.3334C12.5838 14.3334 14.6705 12.8555 16.163 11.2635C16.9017 10.4756 17.4706 9.68449 17.8548 9.08962C18.0044 8.85802 18.1251 8.65744 18.2162 8.50006C18.1251 8.34267 18.0044 8.14209 17.8548 7.91049C17.4706 7.31562 16.9017 6.52454 16.163 5.73665C14.6705 4.14466 12.5838 2.66668 10.0001 2.66668C7.41631 2.66668 5.32964 4.14466 3.83714 5.73665C3.09849 6.52454 2.52955 7.31562 2.14536 7.91049C1.99578 8.14209 1.87504 8.34267 1.78396 8.50006ZM19.1668 8.50006C19.9122 8.12737 19.912 8.12709 19.9119 8.12679L19.9105 8.12411L19.9077 8.11842L19.8982 8.09991C19.8902 8.08445 19.879 8.06281 19.8645 8.03542C19.8355 7.98063 19.7935 7.90274 19.7385 7.80504C19.6287 7.60975 19.4669 7.33464 19.2549 7.00627C18.8318 6.35113 18.2028 5.47553 17.3789 4.59674C15.7464 2.85538 13.2497 1 10.0001 1C6.75046 1 4.25377 2.85538 2.62124 4.59674C1.79738 5.47553 1.1684 6.35113 0.745285 7.00627C0.533212 7.33464 0.371496 7.60975 0.261645 7.80504C0.206688 7.90274 0.164618 7.98063 0.135629 8.03542C0.121131 8.06281 0.109897 8.08445 0.101949 8.09991L0.0924923 8.11842L0.0896164 8.12411L0.0886424 8.12605C0.0884893 8.12635 0.087978 8.12737 0.833339 8.50006L0.087978 8.12737C-0.029326 8.36198 -0.029326 8.63813 0.087978 8.87274L0.833339 8.50006C0.087978 8.87274 0.0878249 8.87243 0.087978 8.87274L0.0896164 8.876L0.0924923 8.88169L0.101949 8.9002C0.109897 8.91566 0.121131 8.9373 0.135629 8.96469C0.164618 9.01948 0.206688 9.09737 0.261645 9.19507C0.371496 9.39036 0.533212 9.66547 0.745285 9.99384C1.1684 10.649 1.79738 11.5246 2.62124 12.4034C4.25377 14.1447 6.75046 16.0001 10.0001 16.0001C13.2497 16.0001 15.7464 14.1447 17.3789 12.4034C18.2028 11.5246 18.8318 10.649 19.2549 9.99384C19.4669 9.66547 19.6287 9.39036 19.7385 9.19507C19.7935 9.09737 19.8355 9.01948 19.8645 8.96469C19.879 8.9373 19.8902 8.91566 19.8982 8.9002L19.9077 8.88169L19.9105 8.876L19.9115 8.87406C19.9117 8.87376 19.9122 8.87274 19.1668 8.50006ZM19.1668 8.50006L19.9122 8.87274C20.0295 8.63813 20.0292 8.3614 19.9119 8.12679L19.1668 8.50006Z" fill="#8E8E8E"/>
    <path fill-rule="evenodd" clip-rule="evenodd" d="M10.0001 6.83343C9.07962 6.83343 8.33343 7.57962 8.33343 8.50011C8.33343 9.42059 9.07962 10.1668 10.0001 10.1668C10.9206 10.1668 11.6668 9.42059 11.6668 8.50011C11.6668 7.57962 10.9206 6.83343 10.0001 6.83343ZM6.66675 8.50011C6.66675 6.65914 8.15914 5.16675 10.0001 5.16675C11.8411 5.16675 13.3335 6.65914 13.3335 8.50011C13.3335 10.3411 11.8411 11.8335 10.0001 11.8335C8.15914 11.8335 6.66675 10.3411 6.66675 8.50011Z" fill="#8E8E8E"/>
    <path d="M2.91675 1.41663L16.6668 15.1667" stroke="#8E8E8E" stroke-width="2" stroke-linecap="round"/>
</svg>
