<svg width="24" height="25" viewBox="0 0 24 25" fill="none" xmlns="http://www.w3.org/2000/svg">
    <path fill-rule="evenodd" clip-rule="evenodd" d="M1.5 6.5C1.5 5.67157 2.17157 5 3 5H21C21.8284 5 22.5 5.67157 22.5 6.5V18.5C22.5 19.3284 21.8284 20 21 20H3C2.17157 20 1.5 19.3284 1.5 18.5V6.5ZM21 6.5H3V18.5H21V6.5Z" fill="#838383"/>
    <path fill-rule="evenodd" clip-rule="evenodd" d="M15 16.25C15 15.8358 15.3358 15.5 15.75 15.5H18.75C19.1642 15.5 19.5 15.8358 19.5 16.25C19.5 16.6642 19.1642 17 18.75 17H15.75C15.3358 17 15 16.6642 15 16.25Z" fill="#838383"/>
    <path fill-rule="evenodd" clip-rule="evenodd" d="M10.5 16.25C10.5 15.8358 10.8358 15.5 11.25 15.5H12.75C13.1642 15.5 13.5 15.8358 13.5 16.25C13.5 16.6642 13.1642 17 12.75 17H11.25C10.8358 17 10.5 16.6642 10.5 16.25Z" fill="#838383"/>
    <path fill-rule="evenodd" clip-rule="evenodd" d="M1.5 9.58447C1.5 9.17026 1.83579 8.83447 2.25 8.83447H21.75C22.1642 8.83447 22.5 9.17026 22.5 9.58447C22.5 9.99869 22.1642 10.3345 21.75 10.3345H2.25C1.83579 10.3345 1.5 9.99869 1.5 9.58447Z" fill="#838383"/>
</svg>
